<svg xmlns="http://www.w3.org/2000/svg" viewBox="0 0 64 64" role="img" aria-labelledby="title desc">
  <title id="title">Asteroid Tracker Icon</title>
  <desc id="desc">Stylized Earth with orbital path and approaching asteroid.</desc>
  <defs>
    <radialGradient id="space" cx="35%" cy="28%" r="75%">
      <stop offset="0%" stop-color="#122846" />
      <stop offset="70%" stop-color="#0a1730" />
      <stop offset="100%" stop-color="#050d1f" />
    </radialGradient>
    <linearGradient id="planet" x1="0" y1="0" x2="1" y2="1">
      <stop offset="0%" stop-color="#6de0ff" />
      <stop offset="100%" stop-color="#1f8ccf" />
    </linearGradient>
    <radialGradient id="rock" cx="35%" cy="30%" r="80%">
      <stop offset="0%" stop-color="#ffcf86" />
      <stop offset="100%" stop-color="#b0662c" />
    </radialGradient>
  </defs>

  <rect x="2" y="2" width="60" height="60" rx="14" fill="url(#space)" />

  <g fill="#d7f2ff" opacity="0.9">
    <circle cx="14" cy="17" r="1.1" />
    <circle cx="48" cy="11" r="1" />
    <circle cx="53" cy="24" r="1.3" />
    <circle cx="20" cy="50" r="0.9" />
    <circle cx="44" cy="46" r="1" />
  </g>

  <ellipse cx="31" cy="34" rx="21" ry="12" fill="none" stroke="#6dc7ff" stroke-width="2.2" opacity="0.7" transform="rotate(-12 31 34)" />

  <g transform="translate(24 27)">
    <circle cx="0" cy="0" r="8.8" fill="url(#planet)" />
    <path d="M-7 -1.8c2.2-2.3 5.6-2.8 8.2-1.5 1.4 0.7 2.7 0.6 4.2 0.2C4 -0.8 1.7 1.3 0.2 2.1c-1.7 0.9-3.9 1-5.7 0.1-1.1-0.6-2-0.7-3-0.5C-8.4 0.6-8.1-0.8-7-1.8z" fill="#31b58f" opacity="0.95" />
    <path d="M-3.4 3.4c1.3-0.7 2.8-0.7 4.1 0.1 0.8 0.5 1.8 0.6 2.7 0.3-0.7 1.1-1.8 2-3.2 2.2-1.4 0.2-2.8-0.2-3.8-1-0.6-0.5-1.3-0.7-2-0.7 0.4-0.4 1-0.7 1.5-0.9z" fill="#2ca17f" opacity="0.95" />
  </g>

  <g transform="translate(43.8 23.8)">
    <circle cx="0" cy="0" r="4.9" fill="url(#rock)" />
    <path d="M-4.6 0.8c1.3 1.8 4.5 2.1 6.6 0.8" fill="none" stroke="#8a4e24" stroke-width="1" opacity="0.55" />
    <circle cx="-1.3" cy="-1.1" r="0.7" fill="#8f5127" opacity="0.8" />
    <circle cx="1.5" cy="1" r="0.6" fill="#8f5127" opacity="0.8" />
  </g>

  <path d="M51 18c2.8-1.1 5.2-3.1 6.7-5.8" fill="none" stroke="#ffd6a6" stroke-width="1.8" stroke-linecap="round" opacity="0.85" />
</svg>
